<svg xmlns="http://www.w3.org/2000/svg" fill="none" viewBox="0 0 512 512">
  <defs>
    <!-- Background Gradient -->
    <linearGradient id="bgGrad" x1="0%" y1="0%" x2="100%" y2="100%">
      <stop offset="0%" stop-color="#3b82f6" /> <!-- Blue 500 -->
      <stop offset="100%" stop-color="#1e40af" /> <!-- Blue 700 -->
    </linearGradient>
    <!-- Shadow for Depth -->
    <filter id="dropShadow" x="-10%" y="-10%" width="120%" height="125%">
      <feDropShadow dx="0" dy="6" stdDeviation="10" flood-color="#0f172a" flood-opacity="0.15" />
    </filter>
  </defs>

  <!-- Background Circle -->
  <circle cx="256" cy="256" r="236" fill="url(#bgGrad)" />

  <!-- Calendar Page Shield with Shadow -->
  <g filter="url(#dropShadow)">
    <!-- Calendar Sheet -->
    <rect x="128" y="148" width="256" height="240" rx="24" fill="#ffffff" />
    
    <!-- Calendar Top Binder Header -->
    <path d="M128 172c0-13.25 10.75-24 24-24h208c13.25 0 24 10.75 24 24v32H128v-32Z" fill="#eff6ff" />
    
    <!-- Grid Lines -->
    <line x1="168" y1="260" x2="344" y2="260" stroke="#cbd5e1" stroke-width="6" stroke-linecap="round" />
    <line x1="168" y1="300" x2="344" y2="300" stroke="#cbd5e1" stroke-width="6" stroke-linecap="round" />
    <line x1="168" y1="340" x2="260" y2="340" stroke="#cbd5e1" stroke-width="6" stroke-linecap="round" />

    <!-- Binder Rings -->
    <!-- Ring Left -->
    <rect x="176" y="116" width="16" height="48" rx="8" fill="#cbd5e1" />
    <rect x="179" y="116" width="10" height="48" rx="5" fill="#e2e8f0" />
    <!-- Ring Right -->
    <rect x="320" y="116" width="16" height="48" rx="8" fill="#cbd5e1" />
    <rect x="329" y="116" width="10" height="48" rx="5" fill="#e2e8f0" />

    <!-- Clock face merged at bottom-right of the sheet -->
    <circle cx="316" cy="324" r="76" fill="#3b82f6" stroke="#ffffff" stroke-width="12" />
    <circle cx="316" cy="324" r="64" fill="#eff6ff" />
    
    <!-- Hour Markers -->
    <line x1="316" y1="268" x2="316" y2="274" stroke="#1e3a8a" stroke-width="4" stroke-linecap="round" />
    <line x1="372" y1="324" x2="366" y2="324" stroke="#1e3a8a" stroke-width="4" stroke-linecap="round" />
    <line x1="316" y1="380" x2="316" y2="374" stroke="#1e3a8a" stroke-width="4" stroke-linecap="round" />
    <line x1="260" y1="324" x2="266" y2="324" stroke="#1e3a8a" stroke-width="4" stroke-linecap="round" />

    <!-- Clock Hands -->
    <line x1="316" y1="324" x2="316" y2="290" stroke="#1e3a8a" stroke-width="6" stroke-linecap="round" />
    <line x1="316" y1="324" x2="344" y2="336" stroke="#2563eb" stroke-width="6" stroke-linecap="round" />
    
    <!-- Center Dot -->
    <circle cx="316" cy="324" r="8" fill="#1e2a5e" />
  </g>
</svg>